<svg width="265" height="48" fill="none" xmlns="http://www.w3.org/2000/svg"><path fill-rule="evenodd" clip-rule="evenodd" d="M115.565 43.646V4.37H4.435v39.275h111.13zM4.332 0h111.336C118.059 0 120 1.922 120 4.252v39.496c0 2.347-1.958 4.252-4.332 4.252H4.331C1.942 48 0 46.078 0 43.748V4.252C0 1.905 1.958 0 4.332 0zm40.11 13.079v10.887l-4.436-10.888h-4.453v21.776h4.453V23.965l4.435 10.887h4.453V13.078h-4.453zm40.005 0h-4.453V34.87h4.453V13.08zm-57.696 0h-4.626c-2.39 0-4.349 1.902-4.349 4.246v13.3c0 2.326 1.958 4.245 4.35 4.245h4.625c2.391 0 4.35-1.902 4.35-4.246v-13.3c.017-2.343-1.941-4.246-4.35-4.246zm-.086 17.426h-4.453V17.427h4.453v13.078zm39.919-17.427h4.626c2.39 0 4.349 1.903 4.383 4.247V34.87h-4.452v-8.714h-4.453v8.713h-4.453V17.325c0-2.344 1.958-4.246 4.349-4.246zm.07 8.714h4.452v-4.365h-4.453v4.365zm31.255 4.348c2.374-.034 4.297-1.92 4.297-4.246v-4.569c0-2.327-1.958-4.246-4.349-4.246h-4.626c-2.39 0-4.349 1.902-4.349 4.246V34.87h4.453v-8.714l4.314 8.73 4.575-.017-4.315-8.73zm-.138-4.348h-4.453v-4.365h4.453v4.365zM124 .394c.879 0 1.606.712 1.606 1.606 0 .894-.712 1.606-1.606 1.606a1.607 1.607 0 010-3.212zM124 0c-1.106 0-2 .894-2 2 0 1.106.894 2 2 2 1.106 0 2-.894 2-2 0-1.106-.894-2-2-2zm.076 2.288h-.349v.773h-.439V.939h.788c.242 0 .439.061.576.167.136.106.196.273.196.47 0 .151-.03.257-.09.363a.648.648 0 01-.288.228l.454.863v.016h-.469l-.379-.758zm-.349-.349h.349a.43.43 0 00.257-.075.307.307 0 00.091-.228.318.318 0 00-.091-.242c-.06-.06-.136-.09-.257-.09h-.349v.635z" fill="#F1F1F1"></path><path d="M136.906 35.183c-.521 0-.984-.102-1.391-.305a3.11 3.11 0 01-1.014-.855 3.875 3.875 0 01-.634-1.27 5.957 5.957 0 01-.208-1.61c0-.692.086-1.307.257-1.844.17-.537.419-1.021.744-1.452a5.87 5.87 0 011.233-1.172 11.383 11.383 0 011.697-1.013c.309-.155.655-.31 1.037-.464.391-.163.737-.301 1.038-.415V22.56c0-.326-.012-.627-.037-.903a2.085 2.085 0 00-.183-.733 1.018 1.018 0 00-.415-.488c-.187-.122-.443-.183-.769-.183-.219 0-.435.04-.647.122-.203.081-.386.22-.549.415-.155.195-.281.456-.378.781-.09.326-.135.729-.135 1.209v.732h-2.356c-.073-.317-.13-.606-.171-.867a6.704 6.704 0 01-.048-.793c0-.627.105-1.18.317-1.66.22-.48.521-.883.903-1.209.391-.325.855-.57 1.392-.732a5.812 5.812 0 011.77-.256c.838 0 1.534.093 2.087.28.554.18.993.452 1.319.818.333.366.565.826.695 1.38.139.553.208 1.2.208 1.94V35h-2.295l-.22-1.44c-.333.48-.781.87-1.342 1.171-.554.302-1.189.452-1.905.452zm1.367-2.38c.261 0 .513-.065.757-.196.253-.138.464-.305.635-.5v-5.261a17.07 17.07 0 00-.549.232c-.204.09-.423.207-.659.354-.22.138-.436.305-.647.5a3.48 3.48 0 00-.574.696 4.096 4.096 0 00-.403.916 3.982 3.982 0 00-.146 1.122c0 .643.126 1.16.378 1.55.252.391.655.587 1.208.587zm7.642-20.008h3.088V35h-3.088V12.795zm6.372 0h3.088V35h-3.088V12.795zm12.024 7.593h-1.306v-2.197h1.575l.622-4.358h2.197v4.358h2.686v2.197h-2.686v10.693c0 .367.033.664.098.892.073.22.171.394.293.525a.909.909 0 00.427.244c.163.04.334.06.513.06.301 0 .566-.036.793-.11.236-.072.46-.174.672-.304v1.709c-.179.22-.375.398-.586.537a3.438 3.438 0 01-.635.342c-.22.081-.443.138-.671.17a4.759 4.759 0 01-.672.05c-.431 0-.846-.058-1.245-.172a2.377 2.377 0 01-1.062-.647c-.309-.325-.557-.773-.744-1.342-.179-.57-.269-1.31-.269-2.222V20.388zm7.898-7.593h3.088v3.955l-.158 2.881a3.786 3.786 0 011.55-1.281c.285-.13.57-.22.854-.269.293-.057.582-.085.867-.085.985 0 1.742.346 2.271 1.037.537.684.805 1.713.805 3.089V35h-3.088V22.231c0-.74-.114-1.253-.342-1.538-.228-.293-.561-.44-1.001-.44-.309 0-.622.107-.94.318a2.848 2.848 0 00-.818.855V35h-3.088V12.795zm14.124 2.991c-.57 0-1.022-.17-1.355-.513-.326-.341-.489-.842-.489-1.501 0-.366.041-.671.122-.916.09-.252.212-.451.367-.598.162-.154.358-.264.585-.33.228-.073.489-.11.782-.11.61 0 1.074.155 1.391.465.318.309.476.805.476 1.489 0 .635-.162 1.131-.488 1.49-.317.35-.781.524-1.391.524zm-1.6 2.405h3.089V35h-3.089V18.19zm6.324 0h2.38l.281 1.794v.013c.244-.383.504-.7.781-.953a4.06 4.06 0 01.879-.622c.301-.155.606-.265.915-.33.318-.065.631-.097.94-.097.985 0 1.742.346 2.271 1.037.537.684.806 1.713.806 3.089V35h-3.089V22.231c0-.74-.114-1.253-.342-1.538-.227-.293-.561-.44-1.001-.44-.309 0-.618.103-.927.306-.301.203-.57.484-.806.842V35h-3.088V18.19zm14.965 17.957c0 .724.135 1.236.403 1.537.269.302.684.452 1.245.452.228 0 .448-.036.66-.11.211-.065.394-.19.549-.378.163-.18.293-.431.391-.757.097-.325.146-.745.146-1.257v-2.65a3.764 3.764 0 01-1.074.929c-.432.252-.969.378-1.612.378a5.26 5.26 0 01-.659-.049 2.835 2.835 0 01-1.574-.842c-.261-.269-.493-.627-.696-1.074-.204-.448-.37-1.005-.501-1.673-.122-.675-.183-1.489-.183-2.441v-4.42c0-.91.061-1.684.183-2.318.131-.643.297-1.18.501-1.612.203-.431.435-.769.696-1.013.268-.244.537-.427.805-.55.277-.13.545-.21.806-.243.26-.033.492-.05.696-.05.407 0 .765.054 1.074.16.317.105.59.248.818.427.236.17.435.366.598.586.163.22.301.44.415.659l.281-1.66h2.405v16.137c0 .936-.09 1.779-.269 2.527-.179.757-.46 1.4-.842 1.929a3.777 3.777 0 01-1.465 1.233c-.586.285-1.29.427-2.112.427a7.953 7.953 0 01-1.562-.146 3.403 3.403 0 01-1.282-.525 2.526 2.526 0 01-.867-1.013c-.211-.424-.317-.965-.317-1.624 0-.114.012-.256.036-.427.025-.171.065-.354.122-.55h2.185zm1.758-4.249c.204 0 .383-.032.537-.097.163-.073.306-.167.428-.281.13-.114.24-.244.329-.39.098-.147.179-.298.244-.452v-9.192a2.594 2.594 0 00-.622-.867 1.284 1.284 0 00-.928-.366c-.228 0-.435.04-.622.122-.188.081-.35.236-.489.464-.138.22-.248.529-.329.928-.074.39-.11.899-.11 1.526v5.53c0 .626.036 1.139.11 1.537.081.4.191.712.329.94.139.228.301.387.489.476.195.082.406.122.634.122zm7.202-.415c0-.366.033-.72.098-1.062.073-.341.142-.614.208-.817h2.172c0 .61.029 1.122.086 1.538.065.406.167.732.305.976.138.244.322.42.549.525.236.106.521.159.855.159.464 0 .801-.13 1.013-.39.212-.261.317-.562.317-.904 0-.18-.024-.35-.073-.513a2.552 2.552 0 00-.207-.488c-.09-.171-.2-.342-.33-.513-.13-.17-.277-.358-.439-.561l-2.259-2.662a37.143 37.143 0 01-.854-1.11 10.891 10.891 0 01-.72-1.172 7.7 7.7 0 01-.501-1.27 5.18 5.18 0 01-.183-1.391c0-.651.11-1.217.33-1.697.227-.48.529-.88.903-1.197a3.82 3.82 0 011.318-.707 5.273 5.273 0 011.575-.232c.61 0 1.16.073 1.648.22.488.146.907.365 1.257.659.35.293.619.659.806 1.098.187.431.281.936.281 1.514 0 .39-.037.769-.11 1.135-.065.366-.13.68-.195.94h-2.137a17.59 17.59 0 00-.073-1.453c-.041-.415-.118-.757-.232-1.025-.106-.277-.256-.484-.452-.623-.187-.138-.435-.207-.744-.207-.269 0-.493.045-.672.134a1.202 1.202 0 00-.439.33 1.38 1.38 0 00-.232.464c-.041.17-.061.346-.061.524 0 .391.094.753.281 1.087.187.334.435.696.744 1.086l2.466 2.893c.179.22.387.489.623.806.236.31.46.655.671 1.038.212.374.391.785.537 1.233.147.447.22.915.22 1.403 0 .595-.094 1.136-.281 1.624-.187.48-.464.891-.83 1.233a3.774 3.774 0 01-1.355.793c-.529.188-1.135.281-1.819.281-.561 0-1.09-.06-1.587-.183a3.54 3.54 0 01-1.293-.623 3.008 3.008 0 01-.867-1.147c-.212-.472-.318-1.054-.318-1.746zm16.187-18.689h3.088V35h-3.088V12.795zm7.971 2.991c-.57 0-1.021-.17-1.355-.513-.325-.341-.488-.842-.488-1.501 0-.366.041-.671.122-.916.089-.252.212-.451.366-.598.163-.154.358-.264.586-.33.228-.073.488-.11.781-.11.611 0 1.075.155 1.392.465.317.309.476.805.476 1.489 0 .635-.163 1.131-.488 1.49-.318.35-.782.524-1.392.524zm-1.599 2.405h3.088V35h-3.088V18.19zm4.932 0h3.076l1.623 8.936.403 3.576h.098l.464-3.576 1.611-8.936h2.979L248.894 35h-2.637l-3.784-16.81zm16.113 16.992c-.724 0-1.367-.134-1.929-.403-.553-.268-1.021-.687-1.404-1.257-.382-.57-.671-1.298-.866-2.185-.196-.895-.293-1.97-.293-3.223v-3.174c0-1.066.077-1.977.232-2.734.162-.765.37-1.404.622-1.916.261-.521.558-.932.891-1.233a3.998 3.998 0 011.05-.684 3.557 3.557 0 011.062-.305c.358-.049.688-.073.989-.073.553 0 1.086.085 1.599.256a3.2 3.2 0 011.355.854c.391.4.7.936.928 1.612.236.675.354 1.517.354 2.527 0 .341-.012.687-.037 1.037-.016.35-.041.696-.073 1.038-.033.334-.077.659-.134.976-.049.318-.102.61-.159.88h-5.579v1.708c0 .733.029 1.351.086 1.856.057.496.15.899.281 1.208.138.301.321.521.549.66.236.13.529.195.879.195.187 0 .37-.037.549-.11.179-.081.334-.212.464-.39.138-.18.248-.416.33-.709.081-.3.122-.671.122-1.11v-.526h2.575v.648c0 1.594-.382 2.758-1.147 3.49-.757.725-1.856 1.087-3.296 1.087zm1.709-10.083a10.727 10.727 0 00.037-.83c.008-.163.012-.321.012-.476v-.415c0-1.107-.13-1.904-.391-2.393-.26-.488-.647-.732-1.16-.732-.268 0-.504.065-.708.195-.203.122-.37.334-.5.635-.13.293-.228.684-.293 1.172a14.134 14.134 0 00-.098 1.819V25.1h3.101z" fill="#000"></path></svg>